<?xml version="1.0" encoding="utf-8"?>
<!-- Generator: Adobe Illustrator 19.0.0, SVG Export Plug-In . SVG Version: 6.00 Build 0)  -->
<svg version="1.1" xmlns="http://www.w3.org/2000/svg" xmlns:xlink="http://www.w3.org/1999/xlink" x="0px" y="0px"
	 viewBox="0 0 500 500" style="enable-background:new 0 0 500 500;" xml:space="preserve">
<style type="text/css">
	.st0{fill:#EBEBEB;}
	.st1{fill:#E6E6E6;}
	.st2{fill:#F0F0F0;}
	.st3{fill:#FAFAFA;}
	.st4{fill:#FFFFFF;}
	.st5{opacity:0.6;fill:#EBEBEB;}
	.st6{fill:#F5F5F5;}
	.st7{fill:#E0E0E0;}
	.st8{display:none;}
	.st9{display:inline;}
	.st10{fill:#407BFF;}
	.st11{opacity:0.9;fill:#FFFFFF;}
	.st12{opacity:0.5;fill:#FFFFFF;}
	.st13{fill:#FFB573;}
	.st14{fill:#263238;}
	.st15{fill:#FF5652;}
	.st16{opacity:0.2;}
	.st17{opacity:0.1;fill:#FFFFFF;}
	.st18{opacity:0.3;}
	.st19{opacity:0.4;}
	.st20{opacity:0.3;fill:#FFFFFF;}
</style>
<g id="Background_Complete">
	<g>
		<rect y="382.4" class="st0" width="500" height="0.3"/>
		<rect x="416.8" y="398.5" class="st0" width="33.1" height="0.3"/>
		<rect x="322.5" y="401.2" class="st0" width="8.7" height="0.3"/>
		<rect x="396.6" y="389.2" class="st0" width="19.2" height="0.3"/>
		<rect x="52.5" y="390.9" class="st0" width="43.2" height="0.3"/>
		<rect x="104.6" y="390.9" class="st0" width="6.3" height="0.3"/>
		<rect x="131.5" y="395.1" class="st0" width="93.7" height="0.3"/>
		<path class="st0" d="M237,337.8H43.9c-3.1,0-5.7-2.6-5.7-5.7V60.7c0-3.1,2.6-5.7,5.7-5.7H237c3.1,0,5.7,2.6,5.7,5.7v271.4
			C242.7,335.2,240.2,337.8,237,337.8z M43.9,55.2c-3,0-5.5,2.4-5.5,5.5v271.4c0,3,2.4,5.5,5.5,5.5H237c3,0,5.5-2.4,5.5-5.5V60.7
			c0-3-2.4-5.5-5.5-5.5H43.9z"/>
		<path class="st0" d="M453.3,337.8H260.2c-3.1,0-5.7-2.6-5.7-5.7V60.7c0-3.1,2.6-5.7,5.7-5.7h193.1c3.1,0,5.7,2.6,5.7,5.7v271.4
			C459,335.2,456.5,337.8,453.3,337.8z M260.2,55.2c-3,0-5.5,2.4-5.5,5.5v271.4c0,3,2.4,5.5,5.5,5.5h193.1c3,0,5.5-2.4,5.5-5.5V60.7
			c0-3-2.4-5.5-5.5-5.5H260.2z"/>
	</g>
	<g>
		<rect x="289.7" y="83.8" class="st1" width="137.8" height="90.2"/>
		<rect x="285.5" y="83.8" class="st2" width="140" height="90.2"/>
		<rect x="289.7" y="174.1" class="st1" width="137.8" height="17.7"/>
		<rect x="278.5" y="174.1" class="st2" width="140" height="17.7"/>
		<rect x="291.4" y="89.7" class="st3" width="128.2" height="78.5"/>
		<polygon class="st4" points="390.7,168.2 374.3,89.7 348.8,89.7 365.1,168.2 		"/>
		<path class="st2" d="M416.9,162.3c0.2,0,0.4-0.2,0.4-0.4V93.5c0-0.2-0.2-0.4-0.4-0.4c-0.2,0-0.4,0.2-0.4,0.4v68.3
			C416.5,162.1,416.7,162.3,416.9,162.3z"/>
		<polygon class="st4" points="359.7,168.2 343.3,89.7 333.3,89.7 349.7,168.2 		"/>
		<rect x="291.4" y="89.7" class="st1" width="0.7" height="78.5"/>
		<polygon class="st5" points="284.1,98.6 421.9,98.6 422.4,92 284.6,92 		"/>
		<polygon class="st5" points="284.1,109.4 421.9,109.4 422.4,102.8 284.6,102.8 		"/>
		<polygon class="st5" points="284.1,120.2 421.9,120.2 422.4,113.6 284.6,113.6 		"/>
		<polygon class="st5" points="284.1,131 421.9,131 422.4,124.4 284.6,124.4 		"/>
		<polygon class="st5" points="284.1,141.8 421.9,141.8 422.4,135.2 284.6,135.2 		"/>
		<polygon class="st5" points="284.1,152.6 421.9,152.6 422.4,146 284.6,146 		"/>
	</g>
	<g>
		<g>
			<g>
				<rect x="378.8" y="316.8" class="st1" width="28.9" height="5.7"/>
				<rect x="324.3" y="251.3" class="st1" width="5.3" height="131.1"/>
				<rect x="305.8" y="316.8" class="st6" width="73" height="5.7"/>
				<rect x="378.8" y="347.9" class="st1" width="28.9" height="5.7"/>
				<rect x="305.8" y="347.9" class="st6" width="73" height="5.7"/>
				<rect x="378.8" y="254.4" class="st1" width="28.9" height="5.7"/>
				<rect x="305.8" y="254.4" class="st6" width="73" height="5.7"/>
				<rect x="378.8" y="285.6" class="st1" width="28.9" height="5.7"/>
				<rect x="305.8" y="285.6" class="st6" width="73" height="5.7"/>
			</g>
		</g>
		<rect x="397.3" y="251.3" class="st1" width="5.3" height="131.1"/>
		<rect x="373.5" y="251.3" class="st6" width="5.3" height="131.1"/>
		<rect x="305.8" y="251.3" class="st6" width="5.3" height="131.1"/>
	</g>
	<g>
		<g>
			<rect x="65.4" y="276.5" class="st1" width="54.6" height="105.9"/>
			<polygon class="st3" points="79.9,382.4 65.4,382.4 65.4,367.8 95.2,367.8 			"/>
			<rect x="214.2" y="276.5" class="st1" width="54.6" height="105.9"/>
			<rect x="65.4" y="276.5" class="st3" width="161.5" height="100.9"/>
			<polygon class="st3" points="212.3,382.4 226.9,382.4 226.9,367.8 197,367.8 			"/>
			<rect x="76.7" y="314.1" class="st2" width="138.9" height="25.2"/>
			<rect x="76.7" y="344.7" class="st2" width="138.9" height="25.2"/>
			<path class="st3" d="M103.1,316.8h86.1c2.5,0,4.6-2,4.6-4.6v-0.3H98.5v0.3C98.5,314.7,100.6,316.8,103.1,316.8z"/>
			<rect x="76.7" y="283.5" class="st2" width="138.9" height="25.2"/>
			<path class="st3" d="M103.1,286.2h86.1c2.5,0,4.6-2,4.6-4.6v-0.3H98.5v0.3C98.5,284.1,100.6,286.2,103.1,286.2z"/>
			<path class="st3" d="M103.1,347.4h86.1c2.5,0,4.6-2,4.6-4.6v-0.3H98.5v0.3C98.5,345.4,100.6,347.4,103.1,347.4z"/>
		</g>
	</g>
	<g>
		<rect x="74.1" y="83.8" class="st1" width="137.8" height="90.2"/>
		<rect x="69.9" y="83.8" class="st2" width="140" height="90.2"/>
		<rect x="74.1" y="174.1" class="st1" width="137.8" height="17.7"/>
		<rect x="62.9" y="174.1" class="st2" width="140" height="17.7"/>
		<rect x="75.7" y="89.7" class="st3" width="128.2" height="78.5"/>
		<polygon class="st4" points="175.1,168.2 158.7,89.7 133.1,89.7 149.5,168.2 		"/>
		<path class="st2" d="M201.3,162.3c0.2,0,0.4-0.2,0.4-0.4V93.5c0-0.2-0.2-0.4-0.4-0.4c-0.2,0-0.4,0.2-0.4,0.4v68.3
			C200.9,162.1,201,162.3,201.3,162.3z"/>
		<polygon class="st4" points="144,168.2 127.6,89.7 117.7,89.7 134.1,168.2 		"/>
		<rect x="75.7" y="89.7" class="st1" width="0.7" height="78.5"/>
		<polygon class="st5" points="68.5,98.6 206.3,98.6 206.8,92 69,92 		"/>
		<polygon class="st5" points="68.5,102.3 206.3,102.3 206.8,95.7 69,95.7 		"/>
		<polygon class="st5" points="68.5,106 206.3,106 206.8,99.4 69,99.4 		"/>
		<polygon class="st5" points="68.5,109.7 206.3,109.7 206.8,103.2 69,103.2 		"/>
		<polygon class="st5" points="68.5,113.5 206.3,113.5 206.8,106.9 69,106.9 		"/>
		<polygon class="st5" points="68.5,117.2 206.3,117.2 206.8,110.6 69,110.6 		"/>
	</g>
	<g>
		<rect x="96" y="220.2" class="st6" width="4.8" height="53.1"/>
		<rect x="96.6" y="220.1" class="st3" width="1.3" height="53.1"/>
		<rect x="98.5" y="220.1" class="st3" width="0.5" height="53.1"/>
		<path class="st2" d="M80.8,276.5H116v0c0-2.5-2-4.4-4.4-4.4H85.2C82.8,272.1,80.8,274.1,80.8,276.5L80.8,276.5z"/>
		<path class="st2" d="M89.8,253.1L89.8,253.1c0.8,0,1.4-0.6,1.4-1.4V217c0-0.8-0.6-1.4-1.4-1.4l0,0c-0.8,0-1.4,0.6-1.4,1.4v34.8
			C88.5,252.5,89.1,253.1,89.8,253.1z"/>
		<polygon class="st7" points="77.1,232.8 119.7,232.8 114.8,203 82,203 		"/>
	</g>
</g>
<g id="Background_Simple" class="st8">
	<g class="st9">
		<path class="st10" d="M240.5,127.1c48.1,5.4,69.2-36.3,116.9-30.9c42.5,4.9,71.9,35.2,61.9,76c-8.8,36.2-50.8,47.6-65.7,81.6
			c-15.8,36-28.1,74.8-75.9,87.3c-93.9,24.6-139.4-90.9-145.8-157.2c-2.5-25.5-6.7-86.3,26.5-94.2C191.8,81.8,211,123.8,240.5,127.1
			z"/>
		<path class="st11" d="M240.5,127.1c48.1,5.4,69.2-36.3,116.9-30.9c42.5,4.9,71.9,35.2,61.9,76c-8.8,36.2-50.8,47.6-65.7,81.6
			c-15.8,36-28.1,74.8-75.9,87.3c-93.9,24.6-139.4-90.9-145.8-157.2c-2.5-25.5-6.7-86.3,26.5-94.2C191.8,81.8,211,123.8,240.5,127.1
			z"/>
	</g>
</g>
<g id="Shadow_1_">
	<ellipse id="_x3C_Path_x3E__130_" class="st6" cx="250" cy="416.2" rx="193.9" ry="11.3"/>
</g>
<g id="Window_No_Data">
	<g>
		<g>
			
				<rect x="95" y="211.1" transform="matrix(7.183588e-002 0.9974 -0.9974 7.183588e-002 307.8609 92.4016)" class="st10" width="18.5" height="1"/>
			
				<rect x="102.4" y="233.3" transform="matrix(7.185701e-002 0.9974 -0.9974 7.185701e-002 331.4978 111.4181)" class="st10" width="7" height="1"/>
			<path class="st10" d="M337.7,315.2H123.6c-4.8,0-9.1-4-9.4-8.8l-10.5-146.1c-0.3-4.8,3.3-8.8,8.2-8.8h214.2c4.8,0,9.1,4,9.4,8.8
				l10.5,146.1C346.2,311.2,342.6,315.2,337.7,315.2z"/>
			<g>
				<g>
					<path class="st10" d="M338.5,315.2H124.4c-4.8,0-9.1-4-9.4-8.8l-10.5-146.1c-0.3-4.8,3.3-8.8,8.2-8.8h214.2
						c4.8,0,9.1,4,9.4,8.8l10.5,146.1C347.1,311.2,343.4,315.2,338.5,315.2z"/>
					<path class="st12" d="M338.5,315.2H124.4c-4.8,0-9.1-4-9.4-8.8l-10.5-146.1c-0.3-4.8,3.3-8.8,8.2-8.8h214.2
						c4.8,0,9.1,4,9.4,8.8l10.5,146.1C347.1,311.2,343.4,315.2,338.5,315.2z"/>
				</g>
				<path class="st10" d="M327.1,155.8H112.9c-0.2,0-0.5,0-0.7,0c-5.5,0.5-4.4,8.8,1.2,8.8h214.5c5.5,0,5.4-8.3-0.1-8.8
					C327.5,155.8,327.3,155.8,327.1,155.8z"/>
				<path class="st3" d="M118.5,160.2c0.1,1.1-0.8,2-1.9,2c-1.1,0-2.1-0.9-2.2-2c-0.1-1.1,0.8-2,1.9-2S118.4,159.1,118.5,160.2z"/>
				<path class="st3" d="M125.3,160.2c0.1,1.1-0.8,2-1.9,2c-1.1,0-2.1-0.9-2.2-2c-0.1-1.1,0.8-2,1.9-2
					C124.3,158.2,125.3,159.1,125.3,160.2z"/>
				<path class="st3" d="M132.2,160.2c0.1,1.1-0.8,2-1.9,2c-1.1,0-2.1-0.9-2.2-2c-0.1-1.1,0.8-2,1.9-2S132.1,159.1,132.2,160.2z"/>
			</g>
			<path class="st4" d="M332.9,300.6H128c-1.8,0-3.3-1.4-3.4-3.2l-8.7-120.2c-0.1-1.8,1.2-3.2,3-3.2h204.9c1.8,0,3.3,1.4,3.4,3.2
				l8.7,120.2C335.9,299.1,334.6,300.6,332.9,300.6z"/>
		</g>
		<g>
			<g>
				<g>
					<g>
						<polygon class="st4" points="246.5,254.8 243.2,208.5 233.1,202.4 205.3,202.4 209.1,254.8 						"/>
						<path class="st10" d="M246.5,255.3h-37.5c-0.3,0-0.5-0.2-0.5-0.4l-3.8-52.4c0-0.1,0-0.3,0.1-0.4c0.1-0.1,0.2-0.2,0.4-0.2h27.8
							c0.1,0,0.2,0,0.3,0.1l10.1,6.1c0.1,0.1,0.2,0.2,0.2,0.4l3.3,46.3c0,0.1,0,0.3-0.1,0.4C246.8,255.2,246.7,255.3,246.5,255.3z
							 M209.5,254.3H246l-3.3-45.5l-9.8-5.9h-27.1L209.5,254.3z"/>
					</g>
					<g>
						<polygon class="st0" points="243.2,208.5 233.1,202.4 236.8,210.5 						"/>
						<path class="st10" d="M236.8,210.9c-0.2,0-0.4-0.1-0.4-0.3l-3.7-8.1c-0.1-0.2,0-0.4,0.1-0.6c0.2-0.1,0.4-0.2,0.6-0.1l10.1,6.1
							c0.2,0.1,0.3,0.3,0.2,0.5c0,0.2-0.2,0.3-0.3,0.4l-6.4,2C236.9,210.9,236.8,210.9,236.8,210.9z M234.2,203.6l2.9,6.2l5-1.5
							L234.2,203.6z"/>
					</g>
				</g>
				<g>
					<path class="st10" d="M221,226c0.1,1.2-0.8,2.1-2,2.1s-2.2-0.9-2.3-2.1c-0.1-1.2,0.8-2.1,2-2.1S220.9,224.8,221,226z"/>
					<path class="st10" d="M234.7,226c0.1,1.2-0.8,2.1-2,2.1c-1.2,0-2.2-0.9-2.3-2.1c-0.1-1.2,0.8-2.1,2-2.1
						C233.6,223.9,234.6,224.8,234.7,226z"/>
					<path class="st10" d="M238.6,239.7c-0.3,0-0.5-0.2-0.5-0.4c-0.2-3.4-5.6-6.2-11.9-6.2c-4.2,0-7.9,1.2-9.8,3.2
						c-0.8,0.9-1.2,1.9-1.1,2.9c0,0.3-0.2,0.5-0.4,0.5c-0.3,0-0.5-0.2-0.5-0.4c-0.1-1.3,0.4-2.5,1.4-3.6c2-2.2,6.1-3.6,10.5-3.6
						c6.9,0,12.6,3.1,12.9,7.1C239.1,239.5,238.9,239.7,238.6,239.7C238.6,239.7,238.6,239.7,238.6,239.7z"/>
				</g>
				<path class="st10" d="M213.2,221.7c-0.1,0-0.2,0-0.3-0.1c-0.2-0.2-0.2-0.5,0-0.7l2.1-2.3c0.2-0.2,0.5-0.2,0.7,0
					c0.2,0.2,0.2,0.5,0,0.7l-2.1,2.3C213.4,221.7,213.3,221.7,213.2,221.7z"/>
				<path class="st10" d="M237.6,221.7c-0.1,0-0.2,0-0.3-0.1l-2.5-2.3c-0.2-0.2-0.2-0.5,0-0.7c0.2-0.2,0.5-0.2,0.7,0l2.5,2.3
					c0.2,0.2,0.2,0.5,0,0.7C237.8,221.7,237.7,221.7,237.6,221.7z"/>
			</g>
			<g>
				<path class="st10" d="M202.3,265.2h2.3l3.3,4.3l-0.3-4.3h2.3l0.6,7.8H208l-3.2-4.3l0.3,4.3h-2.3L202.3,265.2z"/>
				<path class="st10" d="M211.3,269.1c-0.1-1.3,0.2-2.3,0.9-3c0.7-0.7,1.6-1.1,2.9-1.1c1.3,0,2.3,0.4,3.1,1
					c0.8,0.7,1.2,1.7,1.3,2.9c0.1,0.9,0,1.7-0.3,2.3c-0.3,0.6-0.7,1-1.2,1.4c-0.6,0.3-1.3,0.5-2.1,0.5c-0.9,0-1.6-0.1-2.2-0.4
					c-0.6-0.3-1.1-0.7-1.5-1.3C211.6,270.8,211.4,270,211.3,269.1z M213.8,269.1c0.1,0.8,0.2,1.4,0.6,1.7c0.3,0.3,0.7,0.5,1.2,0.5
					c0.5,0,0.9-0.2,1.2-0.5c0.3-0.3,0.4-0.9,0.3-1.8c-0.1-0.7-0.2-1.3-0.6-1.6s-0.7-0.5-1.2-0.5c-0.5,0-0.9,0.2-1.1,0.5
					C213.8,267.7,213.7,268.3,213.8,269.1z"/>
				<path class="st10" d="M224.2,265.2h3.6c0.7,0,1.3,0.1,1.7,0.3c0.5,0.2,0.8,0.5,1.1,0.8c0.3,0.4,0.5,0.8,0.7,1.3
					c0.2,0.5,0.3,1,0.3,1.5c0.1,0.8,0,1.5-0.1,1.9c-0.2,0.5-0.4,0.8-0.7,1.2c-0.3,0.3-0.7,0.5-1,0.6c-0.5,0.1-1,0.2-1.4,0.2h-3.6
					L224.2,265.2z M226.7,266.9l0.3,4.3h0.6c0.5,0,0.9-0.1,1.1-0.2c0.2-0.1,0.4-0.3,0.5-0.6c0.1-0.3,0.1-0.7,0.1-1.4
					c-0.1-0.8-0.2-1.4-0.5-1.7c-0.3-0.3-0.8-0.5-1.4-0.5H226.7z"/>
				<path class="st10" d="M237.4,271.7h-2.7l-0.3,1.3h-2.5l2.4-7.8h2.6l3.5,7.8h-2.5L237.4,271.7z M236.8,270l-1.1-2.8l-0.7,2.8
					H236.8z"/>
				<path class="st10" d="M239.4,265.2h7.4l0.1,1.9h-2.5l0.4,5.9h-2.4l-0.4-5.9h-2.5L239.4,265.2z"/>
				<path class="st10" d="M252.4,271.7h-2.7l-0.3,1.3h-2.5l2.4-7.8h2.6l3.5,7.8h-2.5L252.4,271.7z M251.7,270l-1.1-2.8L250,270
					H251.7z"/>
			</g>
		</g>
	</g>
</g>
<g id="Character_1_">
	<g>
		<path class="st13" d="M353.7,173.1c0.9-0.4,2-1,2.9-1.6c1-0.6,2-1.1,3-1.7c2-1.2,3.9-2.4,5.8-3.7c3.8-2.6,7.3-5.5,10.5-8.7
			c0.4-0.4,0.8-0.8,1.2-1.2l0.6-0.6l0.3-0.3l0.1-0.2c0,0,0,0,0,0l0,0c-0.1,0.3,0,0.2,0-0.1c0.1-0.2,0.1-0.7,0.1-1.1
			c0.1-1.8-0.3-4.1-0.7-6.3c-0.9-4.5-2.2-9.1-3.6-13.6l3.9-1.7c2.4,4.3,4.5,8.8,6.1,13.6c0.8,2.4,1.5,4.9,1.7,7.9
			c0,0.8,0.1,1.6-0.1,2.5c-0.1,0.9-0.4,2-1.2,3.3l-0.2,0.2l-0.1,0.2l-0.2,0.2l-0.3,0.4l-0.6,0.7c-0.4,0.5-0.8,1-1.3,1.5
			c-3.4,3.8-7.3,7.2-11.4,10.2c-2,1.5-4.1,2.9-6.3,4.2c-1.1,0.7-2.2,1.3-3.3,1.9c-1.1,0.6-2.2,1.2-3.5,1.8L353.7,173.1z"/>
		<path class="st10" d="M344.8,408.2c0.8,0,1.6-0.2,2.2-0.3c0.1,0,0.1-0.1,0.1-0.2c0-0.1,0-0.2-0.1-0.2c-0.3-0.2-2.8-1.8-3.8-1.4
			c-0.2,0.1-0.3,0.2-0.4,0.6c-0.1,0.4,0,0.8,0.3,1.1C343.6,408.1,344.1,408.2,344.8,408.2z M346.4,407.6c-1.5,0.3-2.6,0.2-3-0.1
			c-0.2-0.2-0.2-0.4-0.2-0.7c0-0.2,0.1-0.2,0.2-0.3C343.9,406.3,345.4,407,346.4,407.6z"/>
		<path class="st10" d="M347,407.9C347,407.9,347,407.9,347,407.9c0.2-0.1,0.2-0.1,0.2-0.2c0-0.1,0-2.5-0.9-3.3
			c-0.2-0.2-0.5-0.3-0.8-0.3c-0.5,0.1-0.6,0.4-0.7,0.6C344.5,405.6,346.1,407.4,347,407.9C346.9,407.9,346.9,407.9,347,407.9z
			 M345.5,404.5c0.2,0,0.3,0.1,0.4,0.2c0.5,0.5,0.7,1.8,0.8,2.6c-0.8-0.6-1.7-2-1.6-2.6C345.1,404.6,345.2,404.5,345.5,404.5
			C345.5,404.5,345.5,404.5,345.5,404.5z"/>
		<path class="st13" d="M346.2,148.1c-1,5-3,15,0.4,18.4c0,0-1.4,5-10.6,5c-10.2,0-4.9-5-4.9-5c5.5-1.3,5.4-5.4,4.4-9.3L346.2,148.1
			z"/>
		<path class="st14" d="M329.3,168.4c-1.6,0.2-0.2-3.9,0.4-4.3c1.5-1,20.9-2.4,20.7,0c-0.1,1-0.6,3-1.4,3.7
			C348.2,168.4,343.2,166.3,329.3,168.4z"/>
		<path class="st14" d="M332.4,167c-1.3,0.4-1.1-3.7-0.7-4.2c1-1.2,16.7-5.2,17.1-2.9c0.2,1,0.3,2.9-0.3,3.7
			C348,164.4,343.4,163.1,332.4,167z"/>
		<path class="st14" d="M326.6,139.1c-0.1,0-0.2,0-0.3-0.1c-1.1-1.4-2.6-1.2-2.6-1.2c-0.2,0-0.4-0.1-0.4-0.4c0-0.2,0.1-0.4,0.4-0.4
			c0.1,0,1.9-0.2,3.3,1.5c0.1,0.2,0.1,0.4-0.1,0.6C326.8,139.1,326.7,139.1,326.6,139.1z"/>
		<path class="st15" d="M324.7,144c0,0-0.9,3-2,4.5c1,0.7,2.4,0.2,2.4,0.2L324.7,144z"/>
		
			<ellipse transform="matrix(0.9952 -9.785680e-002 9.785680e-002 0.9952 -12.4235 32.427)" class="st14" cx="324.4" cy="142.9" rx="0.8" ry="1.2"/>
		<path class="st14" d="M324.4,141.7l-1.7-0.3C322.8,141.4,323.7,142.5,324.4,141.7z"/>
		<polygon class="st13" points="356.7,407.7 348.3,407.7 349,388.3 357.4,388.3 		"/>
		<path class="st14" d="M347.7,406.7h9.4c0.3,0,0.6,0.2,0.7,0.6l1.1,7.4c0.1,0.8-0.6,1.5-1.3,1.5c-3.3-0.1-4.9-0.2-9-0.2
			c-2.5,0-6.3,0.3-9.8,0.3c-3.4,0-3.7-3.5-2.2-3.8c6.6-1.4,7.6-3.4,9.8-5.2C346.7,406.9,347.2,406.7,347.7,406.7z"/>
		<g class="st16">
			<polygon points="357.4,388.3 349,388.3 348.6,398.3 357,398.3 			"/>
		</g>
		<path class="st13" d="M323.4,178c-5.2-2-10.1-4.2-15-6.8c-4.9-2.5-9.8-5.2-14.4-8.8c-1.2-0.9-2.3-1.9-3.4-3.1
			c-0.3-0.3-0.6-0.6-0.8-0.9c-0.3-0.4-0.5-0.6-0.9-1.1c-0.7-1-1.2-2.3-1.3-3.6c-0.1-1.3,0.1-2.6,0.5-3.6c0.4-1,0.9-1.9,1.4-2.6
			c1.1-1.5,2.2-2.5,3.4-3.5c2.3-1.9,4.8-3.3,7.3-4.7c1.2-0.7,2.5-1.3,3.8-1.8c1.3-0.6,2.5-1.1,3.9-1.5l1.8,3.9
			c-4.4,2.7-8.9,5.8-12.2,9.2c-0.8,0.8-1.5,1.7-2,2.5c-0.5,0.8-0.5,1.4-0.4,1.3c0,0,0,0,0.1,0.1l0.4,0.4c0.1,0.2,0.4,0.4,0.5,0.5
			c0.8,0.7,1.7,1.5,2.7,2.2c2,1.4,4.2,2.7,6.4,4c2.3,1.3,4.6,2.5,6.9,3.6c4.7,2.3,9.6,4.4,14.4,6.4L323.4,178z"/>
		<path class="st13" d="M312,137.2l1.4-3l-6.3-2.2c0,0-2,5.9,0.4,8.6l0,0C309.4,140.3,311.1,139,312,137.2z"/>
		<polygon class="st13" points="313.4,127.7 308.3,126.2 307.1,132 313.4,134.1 		"/>
		<path class="st13" d="M378.3,134.4l0.7-7l-6.5,1.5c0,0-0.1,6.6,3.3,7.6L378.3,134.4z"/>
		<polygon class="st13" points="376,122.5 371.7,124.5 372.6,128.9 379.1,127.4 		"/>
		<path class="st13" d="M347.5,138.3c0.3,8.3,0.6,11.8-3.1,16.5c-5.6,7-15.9,5.6-18.7-2.5c-2.5-7.2-2.6-19.6,5.2-23.7
			C338.5,124.5,347.2,129.9,347.5,138.3z"/>
		<g>
			<path class="st14" d="M343.9,154.7c8.2-3.5,13.5-11,11.3-22.6c-2.2-11.1-9.7-12.2-12.8-9.9c-3.1,2.3-10.8-1.1-15.5,2.8
				c-8,6.8-0.4,14,3.5,18.4C332.8,148.2,335.9,158.2,343.9,154.7z"/>
			
				<ellipse transform="matrix(-0.8228 0.5683 -0.5683 -0.8228 704.4307 31.2638)" class="st10" cx="347.3" cy="125.4" rx="8.3" ry="8.8"/>
			<path class="st14" d="M342.7,123c-1.2-6.7,5.2-11.9,13.6-9.4c8.5,2.5,4,10,2.3,16c-1.7,6,2.8,11.7,4.7,7.1c1.9-4.6-1.3-6-1.3-6
				s9,2.3,0.6,12.5c-8.4,10.1-15.9-1.1-13.9-7.7C350.4,130.3,343.8,129.3,342.7,123z"/>
			<path class="st14" d="M334.2,125.5c-3.9-2-10.4-3.7-14.1,2.6c-1.8,3-1.1,7-1.1,7l11.4,0.8L334.2,125.5z"/>
			<path class="st14" d="M317.6,133.2C317.6,133.2,317.6,133.2,317.6,133.2c-0.2,0-0.3-0.1-0.2-0.3c0-0.2,0.3-4.2,2.7-6.7
				c5.9-6.1,12.7-1,14.7,0.7c0.1,0.1,0.1,0.2,0,0.4c-0.1,0.1-0.2,0.1-0.4,0c-1.9-1.6-8.5-6.5-14-0.7c-2.3,2.4-2.6,6.4-2.6,6.4
				C317.9,133.1,317.7,133.2,317.6,133.2z"/>
		</g>
		<path class="st13" d="M331.9,143c0,1.6-0.7,3.2-1.7,4.3c-1.4,1.6-3,0.8-3.3-1c-0.3-1.6,0-4.4,1.7-5.4
			C330.3,140,331.9,141.2,331.9,143z"/>
		<g>
			<path class="st14" d="M330.1,219.1c0,0,0.5,58.1,5.6,90.5c4.1,26.2,11.6,86.7,11.6,86.7h11.4c0,0,1.1-58.4-1-84.3
				c-5.2-65.5,8.3-77.7-2.6-92.9H330.1z"/>
			<path class="st17" d="M330.1,219.1c0,0,0.5,58.1,5.6,90.5c4.1,26.2,11.6,86.7,11.6,86.7h11.4c0,0,1.1-58.4-1-84.3
				c-5.2-65.5,8.3-77.7-2.6-92.9H330.1z"/>
		</g>
		<path class="st18" d="M336.1,245.5c4,17.5,0.8,45.2-1.4,57.4c-2.3-18.5-3.5-42.4-4.1-60C332.7,239.5,334.6,239.3,336.1,245.5z"/>
		<polygon class="st10" points="345.7,396.6 360.2,396.6 361,391.5 345.6,391 		"/>
		<g>
			<path class="st10" d="M349.8,170c1.4-2.7,8.7-4.4,12.7-4.4l3,13.4c0,0-8,11.9-11.3,10.6C350.3,188.1,346.9,175.9,349.8,170z"/>
			<path class="st19" d="M349.8,170c1.4-2.7,8.7-4.4,12.7-4.4l3,13.4c0,0-8,11.9-11.3,10.6C350.3,188.1,346.9,175.9,349.8,170z"/>
		</g>
		<path class="st10" d="M341.4,393.3c0-0.1,0-0.1,0-0.2c0-0.1-0.1-0.1-0.2-0.1c-0.4,0.1-4.1,0.7-4.6,1.7c-0.1,0.2-0.1,0.4,0,0.6
			c0.2,0.3,0.5,0.5,0.9,0.6C338.6,396,340.4,394.4,341.4,393.3C341.3,393.3,341.3,393.3,341.4,393.3z M336.9,394.9
			c0.3-0.6,2.3-1.1,3.7-1.3c-1.3,1.3-2.5,2.1-3.2,2c-0.2,0-0.4-0.1-0.6-0.4C336.9,395.1,336.9,395,336.9,394.9
			C336.9,394.9,336.9,394.9,336.9,394.9z"/>
		<path class="st10" d="M341.4,393.3C341.4,393.3,341.4,393.3,341.4,393.3c0-0.1,0-0.2,0-0.2c-0.1-0.1-1.5-1.8-2.9-1.9
			c-0.4,0-0.8,0.1-1.1,0.4c-0.4,0.4-0.4,0.7-0.3,0.9c0.4,0.9,3.1,1.2,4.2,0.9C341.3,393.4,341.3,393.4,341.4,393.3z M337.4,392.1
			c0-0.1,0.1-0.1,0.2-0.2c0.2-0.2,0.5-0.3,0.8-0.3c0.9,0.1,1.9,1,2.4,1.5c-1.2,0.1-3.1-0.3-3.4-0.8
			C337.4,392.3,337.4,392.2,337.4,392.1z"/>
		<polygon class="st13" points="350.1,389.8 342.4,393.2 339,386.1 334.5,376.8 334,375.7 341.7,372.3 342.3,373.5 346.6,382.5 		
			"/>
		<polygon class="st16" points="346.6,382.5 339,386.1 334.5,376.8 342.3,373.5 		"/>
		<g>
			<path class="st14" d="M321.1,219.1c0,0-24.5,60.8-17.8,89.5c6,25.9,32.5,74.9,32.5,74.9l10.2-5.1c0,0-16.4-59.2-18.2-72
				c-3.5-25,18.8-60.3,18.8-87.2L321.1,219.1z"/>
			<path class="st17" d="M321.1,219.1c0,0-24.5,60.8-17.8,89.5c6,25.9,32.5,74.9,32.5,74.9l10.2-5.1c0,0-16.4-59.2-18.2-72
				c-3.5-25,18.8-60.3,18.8-87.2L321.1,219.1z"/>
		</g>
		<path class="st14" d="M341.1,392.1l7.6-5.5c0.3-0.2,0.6-0.2,0.9,0.1l5.2,5.4c0.5,0.6,0.4,1.5-0.2,2c-2.7,1.9-4.1,2.7-7.4,5.1
			c-2.1,1.5-6.2,4.8-9,6.9c-2.8,2-5-0.6-4-1.7c4.5-5,5.4-8.1,6.1-10.9C340.4,392.8,340.6,392.4,341.1,392.1z"/>
		<polygon class="st10" points="335.1,385.7 348.3,379.6 346.6,374.3 332.4,380.7 		"/>
		<g>
			<path class="st10" d="M327.6,169.4c-1.1-2.8-10.7-6-15.5-7l-2.1,15.8c0,0,7.8,11.3,11.3,10.3
				C325.3,187.3,329.9,175.4,327.6,169.4z"/>
			<path class="st19" d="M327.6,169.4c-1.1-2.8-10.7-6-15.5-7l-2.1,15.8c0,0,7.8,11.3,11.3,10.3
				C325.3,187.3,329.9,175.4,327.6,169.4z"/>
		</g>
		<g>
			<path class="st10" d="M317.1,168.6c0,0-4,1.4,4,50.6c13.5,0,27.5,0,34,0c-0.6-13.8-0.6-22.4,6-50.8c0,0-7.1-1.6-14.4-1.9
				c-5.7-0.3-10.4-0.5-15.4,0C324.6,167,317.1,168.6,317.1,168.6z"/>
			<path class="st19" d="M317.1,168.6c0,0-4,1.4,4,50.6c13.5,0,27.5,0,34,0c-0.6-13.8-0.6-22.4,6-50.8c0,0-7.1-1.6-14.4-1.9
				c-5.7-0.3-10.4-0.5-15.4,0C324.6,167,317.1,168.6,317.1,168.6z"/>
		</g>
		<g>
			<path class="st10" d="M355.6,217.1l1.5,3c0.1,0.2-0.2,0.5-0.6,0.5h-35.7c-0.3,0-0.6-0.2-0.6-0.3l-0.3-3c0-0.2,0.2-0.4,0.6-0.4
				H355C355.3,216.9,355.5,217,355.6,217.1z"/>
			<path class="st20" d="M355.6,217.1l1.5,3c0.1,0.2-0.2,0.5-0.6,0.5h-35.7c-0.3,0-0.6-0.2-0.6-0.3l-0.3-3c0-0.2,0.2-0.4,0.6-0.4
				H355C355.3,216.9,355.5,217,355.6,217.1z"/>
		</g>
		<path class="st14" d="M351,221h0.9c0.2,0,0.3-0.1,0.3-0.2l-0.4-4c0-0.1-0.2-0.2-0.4-0.2h-0.9c-0.2,0-0.3,0.1-0.3,0.2l0.4,4
			C350.6,220.9,350.8,221,351,221z"/>
		<path class="st14" d="M328.6,221h0.9c0.2,0,0.3-0.1,0.3-0.2l-0.4-4c0-0.1-0.2-0.2-0.4-0.2h-0.9c-0.2,0-0.3,0.1-0.3,0.2l0.4,4
			C328.3,220.9,328.4,221,328.6,221z"/>
	</g>
</g>
</svg>
